<svg xmlns="http://www.w3.org/2000/svg" xmlns:xlink="http://www.w3.org/1999/xlink" version="1.1" width="1000" height="1000" viewBox="0 0 1000 1000" xml:space="preserve">
<desc>Created with Fabric.js 3.5.0</desc>
<defs>
</defs>
<rect x="0" y="0" width="100%" height="100%" fill="rgba(255,255,255,0)"/>
<g transform="matrix(0.9091 0 0 0.9091 500.0045 500.0045)" id="577245">
<g style="" vector-effect="non-scaling-stroke">
		<g transform="matrix(1 0 0 1 -450 -450)">
<rect style="stroke: none; stroke-width: 1; stroke-dasharray: none; stroke-linecap: butt; stroke-dashoffset: 0; stroke-linejoin: miter; stroke-miterlimit: 4; is-custom-font: none; font-file-url: none; fill: rgb(255,255,255); fill-rule: nonzero; opacity: 1;" x="-50" y="-50" rx="0" ry="0" width="100" height="100"/>
</g>
		<g transform="matrix(-1.02 0 0 1.02 27.5589 361.7016)" id="776638">
<ellipse style="stroke: none; stroke-width: 1; stroke-dasharray: none; stroke-linecap: butt; stroke-dashoffset: 0; stroke-linejoin: miter; stroke-miterlimit: 4; is-custom-font: none; font-file-url: none; fill: rgb(242,242,242); fill-rule: nonzero; opacity: 1;" vector-effect="non-scaling-stroke" cx="0" cy="0" rx="352" ry="18"/>
</g>
		<g transform="matrix(-1.02 0 0 1.02 2.8659 -8.8698)" id="776638">
<path style="stroke: none; stroke-width: 1; stroke-dasharray: none; stroke-linecap: butt; stroke-dashoffset: 0; stroke-linejoin: miter; stroke-miterlimit: 4; is-custom-font: none; font-file-url: none; fill: rgb(63,61,86); fill-rule: nonzero; opacity: 1;" vector-effect="non-scaling-stroke" transform=" translate(-597.205, -441.2918)" d="M 778.64963 250.35008 h -3.99878 V 140.80476 a 63.40187 63.40187 0 0 0 -63.4018 -63.40193 H 479.16232 a 63.40188 63.40188 0 0 0 -63.402 63.4017 v 600.9744 a 63.40189 63.40189 0 0 0 63.4018 63.40192 H 711.24875 a 63.40187 63.40187 0 0 0 63.402 -63.40168 V 328.32632 h 3.99878 Z" stroke-linecap="round"/>
</g>
		<g transform="matrix(-1.02 0 0 1.02 2.8648 -8.8695)" id="776638">
<path style="stroke: none; stroke-width: 1; stroke-dasharray: none; stroke-linecap: butt; stroke-dashoffset: 0; stroke-linejoin: miter; stroke-miterlimit: 4; is-custom-font: none; font-file-url: none; fill: rgb(255,255,255); fill-rule: nonzero; opacity: 1;" vector-effect="non-scaling-stroke" transform=" translate(-597.206, -441.2921)" d="M 761.156 141.24713 v 600.09 a 47.35072 47.35072 0 0 1 -47.35 47.35 h -233.2 a 47.35084 47.35084 0 0 1 -47.35 -47.35 v -600.09 a 47.3509 47.3509 0 0 1 47.35 -47.35 h 28.29 a 22.50659 22.50659 0 0 0 20.83 30.99 h 132.96 a 22.50672 22.50672 0 0 0 20.83 -30.99 h 30.29 A 47.35088 47.35088 0 0 1 761.156 141.24713 Z" stroke-linecap="round"/>
</g>
		<g transform="matrix(-1.02 0 0 1.02 -43.6974 -57.599)" id="776638">
<path style="stroke: none; stroke-width: 1; stroke-dasharray: none; stroke-linecap: butt; stroke-dashoffset: 0; stroke-linejoin: miter; stroke-miterlimit: 4; is-custom-font: none; font-file-url: none; fill: rgb(79,178,252); fill-rule: nonzero; opacity: 1;" vector-effect="non-scaling-stroke" transform=" translate(-642.8552, -393.5182)" d="M 686.03027 400.0032 q -2.32543 1.215 -4.73047 2.3 q -2.18994 0.99 -4.4497 1.86 c -0.5503 0.21 -1.10987 0.42 -1.66992 0.63 a 89.52811 89.52811 0 0 1 -13.6001 3.75 q -3.43506 0.675 -6.96 1.06 q -2.90991 0.33 -5.87989 0.47 c -1.41015 0.07 -2.82031 0.1 -4.24023 0.1 a 89.84124 89.84124 0 0 1 -16.75977 -1.57 c -1.44043 -0.26 -2.85009 -0.57 -4.26025 -0.91 a 88.77786 88.77786 0 0 1 -19.66992 -7.26 c -0.56006 -0.28 -1.12012 -0.58 -1.68018 -0.87 c -0.83008 -0.44 -1.63965 -0.9 -2.4497 -1.38 c 0.38964 -0.54 0.81005 -1.07 1.23974 -1.59 a 53.03414 53.03414 0 0 1 78.87012 -4.1 a 54.27663 54.27663 0 0 1 5.06006 5.86 C 685.25977 398.89316 685.6499 399.44321 686.03027 400.0032 Z" stroke-linecap="round"/>
</g>
		<g transform="matrix(-1.02 0 0 1.02 -47.4107 -140.5778)" id="776638">
<circle style="stroke: none; stroke-width: 1; stroke-dasharray: none; stroke-linecap: butt; stroke-dashoffset: 0; stroke-linejoin: miter; stroke-miterlimit: 4; is-custom-font: none; font-file-url: none; fill: rgb(47,46,65); fill-rule: nonzero; opacity: 1;" vector-effect="non-scaling-stroke" cx="0" cy="0" r="43.90974"/>
</g>
		<g transform="matrix(-0.8951 -0.4893 -0.4893 0.8951 -43.3343 -124.9779)" id="776638">
<circle style="stroke: none; stroke-width: 1; stroke-dasharray: none; stroke-linecap: butt; stroke-dashoffset: 0; stroke-linejoin: miter; stroke-miterlimit: 4; is-custom-font: none; font-file-url: none; fill: rgb(160,97,106); fill-rule: nonzero; opacity: 1;" vector-effect="non-scaling-stroke" cx="0" cy="0" r="32.68086"/>
</g>
		<g transform="matrix(-1.02 0 0 1.02 -45.8613 -147.5833)" id="776638">
<path style="stroke: none; stroke-width: 1; stroke-dasharray: none; stroke-linecap: butt; stroke-dashoffset: 0; stroke-linejoin: miter; stroke-miterlimit: 4; is-custom-font: none; font-file-url: none; fill: rgb(47,46,65); fill-rule: nonzero; opacity: 1;" vector-effect="non-scaling-stroke" transform=" translate(-644.9765, -305.2981)" d="M 676.8388 306.90589 a 44.44844 44.44844 0 0 1 -25.402 7.85033 a 27.23846 27.23846 0 0 0 10.796 4.44154 a 89.62764 89.62764 0 0 1 -36.61 0.20571 a 23.69448 23.69448 0 0 1 -7.66395 -2.63224 a 9.699 9.699 0 0 1 -4.73055 -6.3266 c -0.80322 -4.58859 2.77227 -8.75743 6.488 -11.567 a 47.85811 47.85811 0 0 1 40.21662 -8.03639 c 4.49246 1.16124 8.99288 3.12327 11.91085 6.731 s 3.78232 9.16981 1.00224 12.88488 Z" stroke-linecap="round"/>
</g>
		<g transform="matrix(-1.02 0 0 1.02 -45.3716 -132.4108)" id="776638">
<path style="stroke: none; stroke-width: 1; stroke-dasharray: none; stroke-linecap: butt; stroke-dashoffset: 0; stroke-linejoin: miter; stroke-miterlimit: 4; is-custom-font: none; font-file-url: none; fill: rgb(63,61,86); fill-rule: nonzero; opacity: 1;" vector-effect="non-scaling-stroke" transform=" translate(-644.4965, -320.1732)" d="M 644.5 230.17319 a 89.98675 89.98675 0 0 0 -46.83984 166.83 l 0.58007 0.34 q 0.72 0.43506 1.43995 0.84 c 0.81005 0.48 1.61962 0.94 2.4497 1.38 c 0.56006 0.29 1.12012 0.59 1.68018 0.87 a 88.77786 88.77786 0 0 0 19.66992 7.26 c 1.41016 0.34 2.81982 0.65 4.26025 0.91 a 89.84124 89.84124 0 0 0 16.75977 1.57 c 1.41992 0 2.83008 -0.03 4.24023 -0.1 q 2.97 -0.135 5.87989 -0.47 q 3.52513 -0.39 6.96 -1.06 a 89.52811 89.52811 0 0 0 13.6001 -3.75 c 0.56005 -0.21 1.11962 -0.42 1.66992 -0.63 q 2.26464 -0.87 4.4497 -1.86 q 2.40015 -1.08 4.73047 -2.3 a 90.7919 90.7919 0 0 0 37.03955 -35.97 c 0.04 -0.07995 0.09034 -0.16 0.13038 -0.24 a 89.30592 89.30592 0 0 0 9.6499 -26.41 a 90.051 90.051 0 0 0 -88.3501 -107.21 Z m 77.06006 132.45 c -0.08008 0.14 -0.1499 0.28 -0.23 0.41 a 88.17195 88.17195 0 0 1 -36.48 35.32 q -2.29542 1.2 -4.66992 2.25 c -1.31006 0.59 -2.64991 1.15 -4 1.67 c -0.57032 0.22 -1.14991 0.44 -1.73 0.64 a 85.72126 85.72126 0 0 1 -11.73 3.36 a 84.69473 84.69473 0 0 1 -8.95019 1.41 c -1.8501 0.2 -3.73 0.34 -5.62012 0.41 c -1.21 0.05 -2.42969 0.08 -3.6499 0.08 a 86.762 86.762 0 0 1 -16.21973 -1.51 a 85.62478 85.62478 0 0 1 -9.63037 -2.36 a 88.46592 88.46592 0 0 1 -13.98974 -5.67 c -0.52 -0.27 -1.04 -0.54 -1.5503 -0.82 c -0.73 -0.39 -1.46972 -0.79 -2.18994 -1.22 c -0.54 -0.3 -1.08008 -0.62 -1.60986 -0.94 c -0.31006 -0.18 -0.62012 -0.37 -0.93018 -0.56 a 88.06851 88.06851 0 1 1 123.18018 -32.47 Z" stroke-linecap="round"/>
</g>
		<g transform="matrix(-1.02 0 0 1.02 -15.415 -177.1891)" id="776638">
<path style="stroke: none; stroke-width: 1; stroke-dasharray: none; stroke-linecap: butt; stroke-dashoffset: 0; stroke-linejoin: miter; stroke-miterlimit: 4; is-custom-font: none; font-file-url: none; fill: rgb(47,46,65); fill-rule: nonzero; opacity: 1;" vector-effect="non-scaling-stroke" transform=" translate(-615.1274, -276.273)" d="M 624.2595 268.86254 c -0.47244 -4.968 -6.55849 -8.02647 -11.3179 -6.52583 s -7.88411 6.2929 -8.82863 11.19308 a 16.0571 16.0571 0 0 0 2.16528 12.12236 c 2.40572 3.46228 6.82664 5.623 10.95 4.74406 c 4.70707 -1.00334 7.96817 -5.59956 8.90127 -10.32105 s 0.00667 -9.58929 -0.91854 -14.31234 Z" stroke-linecap="round"/>
</g>
		<g transform="matrix(-1.02 0 0 1.02 -83.7372 -169.95)" id="776638">
<path style="stroke: none; stroke-width: 1; stroke-dasharray: none; stroke-linecap: butt; stroke-dashoffset: 0; stroke-linejoin: miter; stroke-miterlimit: 4; is-custom-font: none; font-file-url: none; fill: rgb(47,46,65); fill-rule: nonzero; opacity: 1;" vector-effect="non-scaling-stroke" transform=" translate(-682.1097, -283.3701)" d="M 691.24187 275.95964 c -0.47245 -4.968 -6.5585 -8.02646 -11.3179 -6.52582 s -7.88412 6.29289 -8.82864 11.19307 a 16.05711 16.05711 0 0 0 2.16529 12.12236 c 2.40571 3.46228 6.82663 5.623 10.95 4.74406 c 4.70707 -1.00334 7.96817 -5.59955 8.90127 -10.32105 s 0.00667 -9.58929 -0.91853 -14.31234 Z" stroke-linecap="round"/>
</g>
		<g transform="matrix(-1.02 0 0 1.02 266.006 -188.6072)" id="776638">
<path style="stroke: none; stroke-width: 1; stroke-dasharray: none; stroke-linecap: butt; stroke-dashoffset: 0; stroke-linejoin: miter; stroke-miterlimit: 4; is-custom-font: none; font-file-url: none; fill: rgb(255,255,255); fill-rule: nonzero; opacity: 1;" vector-effect="non-scaling-stroke" transform=" translate(-339.2244, -265.0787)" d="M 488.93638 356.14169 a 4.47525 4.47525 0 0 1 -3.30664 -1.46436 L 436.00767 300.544 a 6.02039 6.02039 0 0 0 -4.42627 -1.94727 H 169.3618 a 15.02615 15.02615 0 0 1 -15.00928 -15.00927 V 189.025 a 15.02615 15.02615 0 0 1 15.00928 -15.00928 H 509.087 A 15.02615 15.02615 0 0 1 524.0963 189.025 v 94.5625 A 15.02615 15.02615 0 0 1 509.087 298.59676 h -9.63135 a 6.01157 6.01157 0 0 0 -6.00464 6.00489 v 47.0332 a 4.474 4.474 0 0 1 -2.87011 4.1958 A 4.52563 4.52563 0 0 1 488.93638 356.14169 Z" stroke-linecap="round"/>
</g>
		<g transform="matrix(-1.02 0 0 1.02 266.006 -188.6072)" id="776638">
<path style="stroke: none; stroke-width: 1; stroke-dasharray: none; stroke-linecap: butt; stroke-dashoffset: 0; stroke-linejoin: miter; stroke-miterlimit: 4; is-custom-font: none; font-file-url: none; fill: rgb(63,61,86); fill-rule: nonzero; opacity: 1;" vector-effect="non-scaling-stroke" transform=" translate(-339.2244, -265.0787)" d="M 488.93638 356.14169 a 4.47525 4.47525 0 0 1 -3.30664 -1.46436 L 436.00767 300.544 a 6.02039 6.02039 0 0 0 -4.42627 -1.94727 H 169.3618 a 15.02615 15.02615 0 0 1 -15.00928 -15.00927 V 189.025 a 15.02615 15.02615 0 0 1 15.00928 -15.00928 H 509.087 A 15.02615 15.02615 0 0 1 524.0963 189.025 v 94.5625 A 15.02615 15.02615 0 0 1 509.087 298.59676 h -9.63135 a 6.01157 6.01157 0 0 0 -6.00464 6.00489 v 47.0332 a 4.474 4.474 0 0 1 -2.87011 4.1958 A 4.52563 4.52563 0 0 1 488.93638 356.14169 Z M 169.3618 176.01571 A 13.024 13.024 0 0 0 156.35252 189.025 v 94.5625 a 13.024 13.024 0 0 0 13.00928 13.00927 H 431.5814 a 8.02436 8.02436 0 0 1 5.90039 2.59571 l 49.62208 54.1333 a 2.50253 2.50253 0 0 0 4.34716 -1.69092 v -47.0332 a 8.0137 8.0137 0 0 1 8.00464 -8.00489 H 509.087 a 13.024 13.024 0 0 0 13.00928 -13.00927 V 189.025 A 13.024 13.024 0 0 0 509.087 176.01571 Z" stroke-linecap="round"/>
</g>
		<g transform="matrix(-1.02 0 0 1.02 417.023 -252.3393)" id="776638">
<circle style="stroke: none; stroke-width: 1; stroke-dasharray: none; stroke-linecap: butt; stroke-dashoffset: 0; stroke-linejoin: miter; stroke-miterlimit: 4; is-custom-font: none; font-file-url: none; fill: rgb(79,178,252); fill-rule: nonzero; opacity: 1;" vector-effect="non-scaling-stroke" cx="0" cy="0" r="13.13371"/>
</g>
		<g transform="matrix(-1.02 0 0 1.02 266.0145 -185.3572)" id="776638">
<path style="stroke: none; stroke-width: 1; stroke-dasharray: none; stroke-linecap: butt; stroke-dashoffset: 0; stroke-linejoin: miter; stroke-miterlimit: 4; is-custom-font: none; font-file-url: none; fill: rgb(230,230,230); fill-rule: nonzero; opacity: 1;" vector-effect="non-scaling-stroke" transform=" translate(-339.2161, -268.2648)" d="M 493.76439 275.26947 H 184.68447 a 7.00465 7.00465 0 1 1 0 -14.00929 H 493.76439 a 7.00465 7.00465 0 0 1 0 14.00929 Z" stroke-linecap="round"/>
</g>
		<g transform="matrix(-1.02 0 0 1.02 317.363 -215.7225)" id="776638">
<path style="stroke: none; stroke-width: 1; stroke-dasharray: none; stroke-linecap: butt; stroke-dashoffset: 0; stroke-linejoin: miter; stroke-miterlimit: 4; is-custom-font: none; font-file-url: none; fill: rgb(230,230,230); fill-rule: nonzero; opacity: 1;" vector-effect="non-scaling-stroke" transform=" translate(-288.8744, -238.4951)" d="M 393.07263 245.49973 H 184.68447 a 7.00465 7.00465 0 1 1 0 -14.00929 H 393.07263 a 7.00464 7.00464 0 0 1 0 14.00929 Z" stroke-linecap="round"/>
</g>
		<g transform="matrix(-1.02 0 0 1.02 -265.9762 138.8128)" id="776638">
<path style="stroke: none; stroke-width: 1; stroke-dasharray: none; stroke-linecap: butt; stroke-dashoffset: 0; stroke-linejoin: miter; stroke-miterlimit: 4; is-custom-font: none; font-file-url: none; fill: rgb(255,255,255); fill-rule: nonzero; opacity: 1;" vector-effect="non-scaling-stroke" transform=" translate(-860.7756, -586.0787)" d="M 709.41908 676.83065 a 4.474 4.474 0 0 1 -2.87011 -4.1958 v -47.0332 a 6.01157 6.01157 0 0 0 -6.00464 -6.00489 H 690.913 a 15.02615 15.02615 0 0 1 -15.00928 -15.00927 V 510.025 A 15.02615 15.02615 0 0 1 690.913 495.01571 H 1030.6382 a 15.02615 15.02615 0 0 1 15.00928 15.00928 v 94.5625 a 15.02615 15.02615 0 0 1 -15.00928 15.00927 H 768.4186 a 6.02039 6.02039 0 0 0 -4.42627 1.94727 l -49.62207 54.1333 a 4.47525 4.47525 0 0 1 -3.30664 1.46436 A 4.52563 4.52563 0 0 1 709.41908 676.83065 Z" stroke-linecap="round"/>
</g>
		<g transform="matrix(-1.02 0 0 1.02 -265.9762 138.8128)" id="776638">
<path style="stroke: none; stroke-width: 1; stroke-dasharray: none; stroke-linecap: butt; stroke-dashoffset: 0; stroke-linejoin: miter; stroke-miterlimit: 4; is-custom-font: none; font-file-url: none; fill: rgb(63,61,86); fill-rule: nonzero; opacity: 1;" vector-effect="non-scaling-stroke" transform=" translate(-860.7756, -586.0787)" d="M 709.41908 676.83065 a 4.474 4.474 0 0 1 -2.87011 -4.1958 v -47.0332 a 6.01157 6.01157 0 0 0 -6.00464 -6.00489 H 690.913 a 15.02615 15.02615 0 0 1 -15.00928 -15.00927 V 510.025 A 15.02615 15.02615 0 0 1 690.913 495.01571 H 1030.6382 a 15.02615 15.02615 0 0 1 15.00928 15.00928 v 94.5625 a 15.02615 15.02615 0 0 1 -15.00928 15.00927 H 768.4186 a 6.02039 6.02039 0 0 0 -4.42627 1.94727 l -49.62207 54.1333 a 4.47525 4.47525 0 0 1 -3.30664 1.46436 A 4.52563 4.52563 0 0 1 709.41908 676.83065 Z M 690.913 497.01571 A 13.024 13.024 0 0 0 677.9037 510.025 v 94.5625 A 13.024 13.024 0 0 0 690.913 617.59676 h 9.63135 a 8.0137 8.0137 0 0 1 8.00464 8.00489 v 47.0332 a 2.50253 2.50253 0 0 0 4.34716 1.69092 l 49.62208 -54.1333 a 8.02436 8.02436 0 0 1 5.90039 -2.59571 h 262.2196 a 13.024 13.024 0 0 0 13.00928 -13.00927 V 510.025 a 13.024 13.024 0 0 0 -13.00928 -13.00928 Z" stroke-linecap="round"/>
</g>
		<g transform="matrix(-1.02 0 0 1.02 44.1757 254.6994)" id="776638">
<path style="stroke: none; stroke-width: 1; stroke-dasharray: none; stroke-linecap: butt; stroke-dashoffset: 0; stroke-linejoin: miter; stroke-miterlimit: 4; is-custom-font: none; font-file-url: none; fill: rgb(79,178,252); fill-rule: nonzero; opacity: 1;" vector-effect="non-scaling-stroke" transform=" translate(-556.7051, -699.6929)" d="M 603.53027 706.11319 a 89.06853 89.06853 0 0 1 -93.65039 1.49 a 54.12885 54.12885 0 0 1 9.40039 -12.65 a 53.43288 53.43288 0 0 1 83.90967 10.56994 C 603.2998 705.71316 603.41992 705.91318 603.53027 706.11319 Z" stroke-linecap="round"/>
</g>
		<g transform="matrix(-1.02 0 0 1.02 48.1639 167.3856)" id="776638">
<circle style="stroke: none; stroke-width: 1; stroke-dasharray: none; stroke-linecap: butt; stroke-dashoffset: 0; stroke-linejoin: miter; stroke-miterlimit: 4; is-custom-font: none; font-file-url: none; fill: rgb(47,46,65); fill-rule: nonzero; opacity: 1;" vector-effect="non-scaling-stroke" cx="0" cy="0" r="44.20157"/>
</g>
		<g transform="matrix(-0.4893 -0.8951 -0.8951 0.4893 44.0605 183.089)" id="776638">
<circle style="stroke: none; stroke-width: 1; stroke-dasharray: none; stroke-linecap: butt; stroke-dashoffset: 0; stroke-linejoin: miter; stroke-miterlimit: 4; is-custom-font: none; font-file-url: none; fill: rgb(255,184,184); fill-rule: nonzero; opacity: 1;" vector-effect="non-scaling-stroke" cx="0" cy="0" r="32.89806"/>
</g>
		<g transform="matrix(-1.02 0 0 1.02 46.6039 160.3334)" id="776638">
<path style="stroke: none; stroke-width: 1; stroke-dasharray: none; stroke-linecap: butt; stroke-dashoffset: 0; stroke-linejoin: miter; stroke-miterlimit: 4; is-custom-font: none; font-file-url: none; fill: rgb(47,46,65); fill-rule: nonzero; opacity: 1;" vector-effect="non-scaling-stroke" transform=" translate(-554.3245, -607.1774)" d="M 522.25039 608.79582 a 44.74387 44.74387 0 0 0 25.57085 7.9025 a 27.41946 27.41946 0 0 1 -10.8677 4.47107 a 90.22316 90.22316 0 0 0 36.85334 0.20707 a 23.852 23.852 0 0 0 7.71488 -2.64973 a 9.76352 9.76352 0 0 0 4.762 -6.36865 c 0.80855 -4.61909 -2.7907 -8.81563 -6.53113 -11.64387 a 48.17616 48.17616 0 0 0 -40.4839 -8.08981 c -4.52231 1.169 -9.05265 3.144 -11.99 6.77579 s -3.80746 9.23076 -1.0089 12.97052 Z" stroke-linecap="round"/>
</g>
		<g transform="matrix(-1.02 0 0 1.02 45.3746 184.8307)" id="776638">
<path style="stroke: none; stroke-width: 1; stroke-dasharray: none; stroke-linecap: butt; stroke-dashoffset: 0; stroke-linejoin: miter; stroke-miterlimit: 4; is-custom-font: none; font-file-url: none; fill: rgb(63,61,86); fill-rule: nonzero; opacity: 1;" vector-effect="non-scaling-stroke" transform=" translate(-555.5296, -631.1943)" d="M 555.5 721.17319 a 89.97205 89.97205 0 1 1 48.5708 -14.21875 A 89.87958 89.87958 0 0 1 555.5 721.17319 Z m 0 -178 a 88.00832 88.00832 0 1 0 88 88 A 88.09957 88.09957 0 0 0 555.5 543.17319 Z" stroke-linecap="round"/>
</g>
		<g transform="matrix(-1.02 0 0 1.02 -120.517 74.0607)" id="776638">
<circle style="stroke: none; stroke-width: 1; stroke-dasharray: none; stroke-linecap: butt; stroke-dashoffset: 0; stroke-linejoin: miter; stroke-miterlimit: 4; is-custom-font: none; font-file-url: none; fill: rgb(79,178,252); fill-rule: nonzero; opacity: 1;" vector-effect="non-scaling-stroke" cx="0" cy="0" r="13.13371"/>
</g>
		<g transform="matrix(-1.02 0 0 1.02 -271.5299 141.0428)" id="776638">
<path style="stroke: none; stroke-width: 1; stroke-dasharray: none; stroke-linecap: butt; stroke-dashoffset: 0; stroke-linejoin: miter; stroke-miterlimit: 4; is-custom-font: none; font-file-url: none; fill: rgb(230,230,230); fill-rule: nonzero; opacity: 1;" vector-effect="non-scaling-stroke" transform=" translate(-866.2202, -588.2648)" d="M 1020.76439 595.26947 H 711.68447 a 7.00465 7.00465 0 1 1 0 -14.00929 h 309.07992 a 7.00464 7.00464 0 0 1 0 14.00929 Z" stroke-linecap="round"/>
</g>
		<g transform="matrix(-1.02 0 0 1.02 -220.1727 110.6775)" id="776638">
<path style="stroke: none; stroke-width: 1; stroke-dasharray: none; stroke-linecap: butt; stroke-dashoffset: 0; stroke-linejoin: miter; stroke-miterlimit: 4; is-custom-font: none; font-file-url: none; fill: rgb(230,230,230); fill-rule: nonzero; opacity: 1;" vector-effect="non-scaling-stroke" transform=" translate(-815.8702, -558.4951)" d="M 920.07263 565.49973 H 711.68447 a 7.00465 7.00465 0 1 1 0 -14.00929 H 920.07263 a 7.00465 7.00465 0 0 1 0 14.00929 Z" stroke-linecap="round"/>
</g>
		<g transform="matrix(-1.02 0 0 1.02 -111.161 237.7375)" id="776638">
<ellipse style="stroke: none; stroke-width: 1; stroke-dasharray: none; stroke-linecap: butt; stroke-dashoffset: 0; stroke-linejoin: miter; stroke-miterlimit: 4; is-custom-font: none; font-file-url: none; fill: rgb(242,242,242); fill-rule: nonzero; opacity: 1;" vector-effect="non-scaling-stroke" cx="0" cy="0" rx="24.50394" ry="2.71961"/>
</g>
		<g transform="matrix(-1.02 0 0 1.02 112.219 -88.6625)" id="776638">
<ellipse style="stroke: none; stroke-width: 1; stroke-dasharray: none; stroke-linecap: butt; stroke-dashoffset: 0; stroke-linejoin: miter; stroke-miterlimit: 4; is-custom-font: none; font-file-url: none; fill: rgb(242,242,242); fill-rule: nonzero; opacity: 1;" vector-effect="non-scaling-stroke" cx="0" cy="0" rx="24.50394" ry="2.71961"/>
</g>
</g>
</g>
</svg>