<svg xmlns="http://www.w3.org/2000/svg" xmlns:xlink="http://www.w3.org/1999/xlink" version="1.1" width="1000" height="1000" viewBox="0 0 1000 1000" xml:space="preserve">
<desc>Created with Fabric.js 3.5.0</desc>
<defs>
</defs>
<rect x="0" y="0" width="100%" height="100%" fill="rgba(255,255,255,0)"/>
<g transform="matrix(-1.0502 0 0 1.0502 500.0178 500.0147)" id="624546">
<g style="" vector-effect="non-scaling-stroke">
		<g transform="matrix(1 0 0 1 -166.0394 -0.3795)" id="be762e0f-b118-45b0-834c-015dca31fdfd-77">
<path style="stroke: none; stroke-width: 1; stroke-dasharray: none; stroke-linecap: butt; stroke-dashoffset: 0; stroke-linejoin: miter; stroke-miterlimit: 4; is-custom-font: none; font-file-url: none; fill: rgb(63,61,86); fill-rule: nonzero; opacity: 1;" transform=" translate(-433.9606, -449.6205)" d="M 611.15112 263.156 h -3.9 V 156.179 a 61.915 61.915 0 0 0 -61.915 -61.915 h -226.65 a 61.915 61.915 0 0 0 -61.916 61.914 V 743.062 a 61.915 61.915 0 0 0 61.915 61.915 h 226.648 a 61.915 61.915 0 0 0 61.915 -61.915 V 339.304 h 3.9 Z" stroke-linecap="round"/>
</g>
		<g transform="matrix(1 0 0 1 -167.9834 -0.38)" id="bd19cda7-6ee4-487f-8299-09f5b9520cce-78">
<path style="stroke: none; stroke-width: 1; stroke-dasharray: none; stroke-linecap: butt; stroke-dashoffset: 0; stroke-linejoin: miter; stroke-miterlimit: 4; is-custom-font: none; font-file-url: none; fill: rgb(255,255,255); fill-rule: nonzero; opacity: 1;" transform=" translate(-432.0166, -449.62)" d="M 594.62415 152.032 V 747.207 a 46.959 46.959 0 0 1 -46.942 46.952 h -231.3 a 46.966 46.966 0 0 1 -46.973 -46.952 V 152.032 a 46.965 46.965 0 0 1 46.971 -46.951 h 28.058 a 22.329 22.329 0 0 0 20.656 30.74 h 131.868 a 22.329 22.329 0 0 0 20.656 -30.74 h 30.055 a 46.959 46.959 0 0 1 46.951 46.942 Z" stroke-linecap="round"/>
</g>
		<g transform="matrix(1 0 0 1 -165.8763 -14.4267)">
<path style="stroke: none; stroke-width: 1; stroke-dasharray: none; stroke-linecap: butt; stroke-dashoffset: 0; stroke-linejoin: miter; stroke-miterlimit: 4; is-custom-font: none; font-file-url: none; fill: rgb(230,230,230); fill-rule: nonzero; opacity: 1;" transform=" translate(-434.1238, -435.5732)" d="M 540.92969 666.47461 H 327.31787 a 29.01035 29.01035 0 0 1 -28.97754 -28.97754 V 336.99268 c 0 -72.96192 59.3584 -132.3208 132.32031 -132.3208 H 540.93018 a 29.00984 29.00984 0 0 1 28.97705 28.97705 V 637.49707 A 29.01 29.01 0 0 1 540.92969 666.47461 Z" stroke-linecap="round"/>
</g>
		<g transform="matrix(1 0 0 1 -285.4778 273.432)" id="be454a6a-b415-4179-b5e8-57164f143cba">
<circle style="stroke: none; stroke-width: 1; stroke-dasharray: none; stroke-linecap: butt; stroke-dashoffset: 0; stroke-linejoin: miter; stroke-miterlimit: 4; is-custom-font: none; font-file-url: none; fill: rgb(230,230,230); fill-rule: nonzero; opacity: 1;" cx="0" cy="0" r="15.37866"/>
</g>
		<g transform="matrix(1 0 0 1 -45.9716 273.432)" id="be5a0c73-855d-427d-a69e-6f1eaa4c04a0">
<circle style="stroke: none; stroke-width: 1; stroke-dasharray: none; stroke-linecap: butt; stroke-dashoffset: 0; stroke-linejoin: miter; stroke-miterlimit: 4; is-custom-font: none; font-file-url: none; fill: rgb(230,230,230); fill-rule: nonzero; opacity: 1;" cx="0" cy="0" r="15.37866"/>
</g>
		<g transform="matrix(1 0 0 1 -70.9585 202.692)">
<polygon style="stroke: none; stroke-width: 1; stroke-dasharray: none; stroke-linecap: butt; stroke-dashoffset: 0; stroke-linejoin: miter; stroke-miterlimit: 4; is-custom-font: none; font-file-url: none; fill: rgb(255,182,182); fill-rule: nonzero; opacity: 1;" points="27.0715,13.191 17.5375,23.581 -27.0715,-8.247 -13.0005,-23.581 27.0715,13.191 "/>
</g>
		<g transform="matrix(1 0 0 1 -49.8325 233.0472)">
<path style="stroke: none; stroke-width: 1; stroke-dasharray: none; stroke-linecap: butt; stroke-dashoffset: 0; stroke-linejoin: miter; stroke-miterlimit: 4; is-custom-font: none; font-file-url: none; fill: rgb(47,46,65); fill-rule: nonzero; opacity: 1;" transform=" translate(-550.1675, -683.0473)" d="M 568.61505 672.47461 L 537.87532 705.9738 l -0.42372 -0.38879 a 17.69746 17.69746 0 0 1 -1.07478 -25.00335 l 0.00076 -0.00083 l 0.97238 -10.379 L 552.469 663.045 l 2.6834 -2.92427 Z" stroke-linecap="round"/>
</g>
		<g transform="matrix(1 0 0 1 -48.0565 304.629)">
<polygon style="stroke: none; stroke-width: 1; stroke-dasharray: none; stroke-linecap: butt; stroke-dashoffset: 0; stroke-linejoin: miter; stroke-miterlimit: 4; is-custom-font: none; font-file-url: none; fill: rgb(255,182,182); fill-rule: nonzero; opacity: 1;" points="10.4025,27.194 -3.6975,27.193 -10.4055,-27.194 10.4055,-27.193 10.4025,27.194 "/>
</g>
		<g transform="matrix(1 0 0 1 -56.7901 333.2043)">
<path style="stroke: none; stroke-width: 1; stroke-dasharray: none; stroke-linecap: butt; stroke-dashoffset: 0; stroke-linejoin: miter; stroke-miterlimit: 4; is-custom-font: none; font-file-url: none; fill: rgb(47,46,65); fill-rule: nonzero; opacity: 1;" transform=" translate(-543.2099, -783.2043)" d="M 565.94229 795.49106 l -45.46567 -0.00169 v -0.57507 a 17.69746 17.69746 0 0 1 17.69651 -17.69622 h 0.00112 l 8.3049 -6.30054 l 15.4951 6.3015 l 3.96888 0.00016 Z" stroke-linecap="round"/>
</g>
		<g transform="matrix(1 0 0 1 -81.6022 168.6597)" id="a30b4662-e5c2-40ab-b3a2-3f3e92442cbc-79">
<path style="stroke: none; stroke-width: 1; stroke-dasharray: none; stroke-linecap: butt; stroke-dashoffset: 0; stroke-linejoin: miter; stroke-miterlimit: 4; is-custom-font: none; font-file-url: none; fill: rgb(47,46,65); fill-rule: nonzero; opacity: 1;" transform=" translate(-518.3979, -618.6597)" d="M 494.25411 507.266 s -86.138 83.167 -31.683 108.91 h 16.831 s 5.058 -17.96928 16.63727 -33.12264 c 1.59018 -2.081 7.54741 -1.65826 9.20179 -3.68636 c 10.10141 -12.38329 21.05261 -23.01828 28.61594 -22.596 l 4.95 57.425 l -2.44219 16.83068 a 88.19336 88.19336 0 0 0 1.19448 31.8341 v 0 l -1.72229 67.17524 l 30.20227 0.01737 s 1.21985 -15.74366 2.24025 -35.43474 c 0.27336 -5.2751 2.54231 -8.95037 2.75975 -14.56526 c 0.5213 -13.461 -1.20641 -29.12982 -1.53928 -40.11539 l 22.772 -120.791 Z" stroke-linecap="round"/>
</g>
		<g transform="matrix(1 0 0 1 -57.8148 -22.2134)" id="bce5c948-7db7-43f8-8cd2-61a9f17c0c07-80">
<path style="stroke: none; stroke-width: 1; stroke-dasharray: none; stroke-linecap: butt; stroke-dashoffset: 0; stroke-linejoin: miter; stroke-miterlimit: 4; is-custom-font: none; font-file-url: none; fill: rgb(79,178,252); fill-rule: nonzero; opacity: 1;" transform=" translate(-542.1852, -427.7866)" d="M 534.03937 331.05331 L 519.9941 349.842 l -33.663 19.8 l 19.8 51.484 l 0.751 38.30649 l -1.84277 4.62082 l 2.08174 7.56768 s -0.96062 8.85672 -6.08174 15.43232 c -8.95362 11.49658 -22.62583 23.99213 -8.76926 27.14169 c 21.782 4.951 99.009 15.841 102.969 6.931 c 1.36981 -3.08208 1.19966 -16.11578 0.391 -31.84754 c -0.15122 -2.94186 -3.40079 -6.142 -3.59077 -9.22515 c -0.14254 -2.31334 2.7817 -4.48913 2.62314 -6.83525 c -1.7669 -26.14462 -4.3734 -53.081 -4.3734 -53.081 l 7.75026 -72.0837 l -31 -8 l -3.48025 -8.8723 Z" stroke-linecap="round"/>
</g>
		<g transform="matrix(1 0 0 1 -105.9213 176.4162)" id="aa56653d-a1eb-49b2-bba0-f0dc0c583c83-81">
<path style="stroke: none; stroke-width: 1; stroke-dasharray: none; stroke-linecap: butt; stroke-dashoffset: 0; stroke-linejoin: miter; stroke-miterlimit: 4; is-custom-font: none; font-file-url: none; fill: rgb(47,46,65); fill-rule: nonzero; opacity: 1;" transform=" translate(-494.0787, -626.4162)" d="M 458.43521 611.2356 l 4.60416 5.81771 s 42.34451 29.62482 43.79856 32.39338 l 6.69207 6.33242 l 16.19225 -17.30872 l -8.4206 -10.55436 a 66.10234 66.10234 0 0 0 -25.35712 -19.41327 h 0 l -12.90514 -11.44945 Z" stroke-linecap="round"/>
</g>
		<g transform="matrix(1 0 0 1 -119.0807 32.6187)">
<path style="stroke: none; stroke-width: 1; stroke-dasharray: none; stroke-linecap: butt; stroke-dashoffset: 0; stroke-linejoin: miter; stroke-miterlimit: 4; is-custom-font: none; font-file-url: none; fill: rgb(255,185,185); fill-rule: nonzero; opacity: 1;" transform=" translate(-480.9193, -482.6187)" d="M 485.34141 528.08817 l 7.71109 -74.63911 l 2.0353 -30.719 l -21.58313 -3.90266 s -3.232 21.11786 -6.05941 33.51076 c -2.79018 12.22915 3.717 74.11131 3.88946 75.74334 a 10.50079 10.50079 0 1 0 14.00669 0.00667 Z" stroke-linecap="round"/>
</g>
		<g transform="matrix(1 0 0 1 -116.5644 -34.3951)">
<path style="stroke: none; stroke-width: 1; stroke-dasharray: none; stroke-linecap: butt; stroke-dashoffset: 0; stroke-linejoin: miter; stroke-miterlimit: 4; is-custom-font: none; font-file-url: none; fill: rgb(79,178,252); fill-rule: nonzero; opacity: 1;" transform=" translate(-483.4356, -415.6049)" d="M 457.45534 465.98817 l 37.2588 9.45768 l -0.2588 -10.45768 l 2.82782 -3 l 5.65 -29.59722 l 8.1062 -17.33764 L 508.93221 355.764 l -20.58858 10.91954 l -0.02512 0.01933 a 55.66255 55.66255 0 0 0 -8.928 13.21991 c -7.76154 15.77858 -15.21745 50.53309 -19.12034 70.71918 a 2.203 2.203 0 0 1 -0.74252 1.07 a 11.41536 11.41536 0 0 0 -2.07235 14.27622 Z" stroke-linecap="round"/>
</g>
		<g transform="matrix(1 0 0 1 41.1039 4.7934)">
<path style="stroke: none; stroke-width: 1; stroke-dasharray: none; stroke-linecap: butt; stroke-dashoffset: 0; stroke-linejoin: miter; stroke-miterlimit: 4; is-custom-font: none; font-file-url: none; fill: rgb(255,185,185); fill-rule: nonzero; opacity: 1;" transform=" translate(-641.1039, -454.7933)" d="M 678.71622 485.04417 s -45.35878 -47.82044 -45.78176 -48.72177 c -3.16847 -24.06114 -12.28147 -34.67474 -13.6476 -33.5225 L 595.766 410.94839 s 6.99625 22.15475 11.73316 35.31426 c 4.5263 12.57444 56.69257 43.288 57.56313 44.80437 a 11.188 11.188 0 1 0 13.654 -6.02285 Z" stroke-linecap="round"/>
</g>
		<g transform="matrix(1 0 0 1 6.0738 -51.5967)">
<path style="stroke: none; stroke-width: 1; stroke-dasharray: none; stroke-linecap: butt; stroke-dashoffset: 0; stroke-linejoin: miter; stroke-miterlimit: 4; is-custom-font: none; font-file-url: none; fill: rgb(79,178,252); fill-rule: nonzero; opacity: 1;" transform=" translate(-606.0738, -398.4033)" d="M 576.77281 349.69891 s 23.08916 -11.31585 32.04437 10.909 c 4.90935 12.547 17.46581 42.998 23.72314 61.743 a 1.40067 1.40067 0 0 0 0.17043 0.33618 a 15.241 15.241 0 0 1 2.59638 8.40918 a 2.862 2.862 0 0 0 0.06763 0.64912 s -25.37273 4.94306 -32.91942 18.2428 l -2.99331 -3.24832 l -0.53212 -2.27586 l -21.89054 -58.41068 Z" stroke-linecap="round"/>
</g>
		<g transform="matrix(1 0 0 1 218.6751 -38.4736)">
<path style="stroke: none; stroke-width: 1; stroke-dasharray: none; stroke-linecap: butt; stroke-dashoffset: 0; stroke-linejoin: miter; stroke-miterlimit: 4; is-custom-font: none; font-file-url: none; fill: rgb(230,230,230); fill-rule: nonzero; opacity: 1;" transform=" translate(-818.6751, -411.5264)" d="M 953.83625 440.40682 H 683.514 a 9.09549 9.09549 0 0 1 -9.085 -9.085 V 391.731 a 9.09549 9.09549 0 0 1 9.085 -9.085 H 953.83625 a 9.09549 9.09549 0 0 1 9.085 9.085 v 39.59082 A 9.09549 9.09549 0 0 1 953.83625 440.40682 Z" stroke-linecap="round"/>
</g>
		<g transform="matrix(1 0 0 1 218.6759 -38.4712)">
<path style="stroke: none; stroke-width: 1; stroke-dasharray: none; stroke-linecap: butt; stroke-dashoffset: 0; stroke-linejoin: miter; stroke-miterlimit: 4; is-custom-font: none; font-file-url: none; fill: rgb(255,255,255); fill-rule: nonzero; opacity: 1;" transform=" translate(-818.6758, -411.5289)" d="M 927.57111 434.27889 H 689.64337 a 9.09549 9.09549 0 0 1 -9.085 -9.085 V 397.86385 a 9.0955 9.0955 0 0 1 9.085 -9.085 H 947.70832 a 9.0955 9.0955 0 0 1 9.085 9.085 v 7.19288 A 29.2551 29.2551 0 0 1 927.57111 434.27889 Z" stroke-linecap="round"/>
</g>
		<g transform="matrix(1 0 0 1 191.1754 -43.6329)">
<path style="stroke: none; stroke-width: 1; stroke-dasharray: none; stroke-linecap: butt; stroke-dashoffset: 0; stroke-linejoin: miter; stroke-miterlimit: 4; is-custom-font: none; font-file-url: none; fill: rgb(79,178,252); fill-rule: nonzero; opacity: 1;" transform=" translate(-791.1754, -406.3671)" d="M 845.49982 408.71005 H 736.85089 a 2.343 2.343 0 1 1 0 -4.686 H 845.49982 a 2.343 2.343 0 0 1 0 4.686 Z" stroke-linecap="round"/>
</g>
		<g transform="matrix(1 0 0 1 218.6754 -34.0499)">
<path style="stroke: none; stroke-width: 1; stroke-dasharray: none; stroke-linecap: butt; stroke-dashoffset: 0; stroke-linejoin: miter; stroke-miterlimit: 4; is-custom-font: none; font-file-url: none; fill: rgb(230,230,230); fill-rule: nonzero; opacity: 1;" transform=" translate(-818.6754, -415.9501)" d="M 900.49982 418.29305 H 736.85089 a 2.343 2.343 0 1 1 0 -4.686 H 900.49982 a 2.343 2.343 0 0 1 0 4.686 Z" stroke-linecap="round"/>
</g>
		<g transform="matrix(1 0 0 1 218.6751 45.5264)">
<path style="stroke: none; stroke-width: 1; stroke-dasharray: none; stroke-linecap: butt; stroke-dashoffset: 0; stroke-linejoin: miter; stroke-miterlimit: 4; is-custom-font: none; font-file-url: none; fill: rgb(230,230,230); fill-rule: nonzero; opacity: 1;" transform=" translate(-818.6751, -495.5264)" d="M 953.83625 524.40682 H 683.514 a 9.09549 9.09549 0 0 1 -9.085 -9.085 V 475.731 a 9.09549 9.09549 0 0 1 9.085 -9.085 H 953.83625 a 9.09549 9.09549 0 0 1 9.085 9.085 v 39.59082 A 9.09549 9.09549 0 0 1 953.83625 524.40682 Z" stroke-linecap="round"/>
</g>
		<g transform="matrix(1 0 0 1 218.6759 45.5289)">
<path style="stroke: none; stroke-width: 1; stroke-dasharray: none; stroke-linecap: butt; stroke-dashoffset: 0; stroke-linejoin: miter; stroke-miterlimit: 4; is-custom-font: none; font-file-url: none; fill: rgb(255,255,255); fill-rule: nonzero; opacity: 1;" transform=" translate(-818.6758, -495.5289)" d="M 927.57111 518.27889 H 689.64337 a 9.09549 9.09549 0 0 1 -9.085 -9.085 V 481.86385 a 9.0955 9.0955 0 0 1 9.085 -9.085 H 947.70832 a 9.0955 9.0955 0 0 1 9.085 9.085 v 7.19288 A 29.2551 29.2551 0 0 1 927.57111 518.27889 Z" stroke-linecap="round"/>
</g>
		<g transform="matrix(1 0 0 1 191.1754 40.3671)">
<path style="stroke: none; stroke-width: 1; stroke-dasharray: none; stroke-linecap: butt; stroke-dashoffset: 0; stroke-linejoin: miter; stroke-miterlimit: 4; is-custom-font: none; font-file-url: none; fill: rgb(79,178,252); fill-rule: nonzero; opacity: 1;" transform=" translate(-791.1754, -490.3671)" d="M 845.49982 492.71005 H 736.85089 a 2.343 2.343 0 1 1 0 -4.686 H 845.49982 a 2.343 2.343 0 0 1 0 4.686 Z" stroke-linecap="round"/>
</g>
		<g transform="matrix(1 0 0 1 218.6754 49.9501)">
<path style="stroke: none; stroke-width: 1; stroke-dasharray: none; stroke-linecap: butt; stroke-dashoffset: 0; stroke-linejoin: miter; stroke-miterlimit: 4; is-custom-font: none; font-file-url: none; fill: rgb(230,230,230); fill-rule: nonzero; opacity: 1;" transform=" translate(-818.6754, -499.9501)" d="M 900.49982 502.29305 H 736.85089 a 2.343 2.343 0 1 1 0 -4.686 H 900.49982 a 2.343 2.343 0 0 1 0 4.686 Z" stroke-linecap="round"/>
</g>
		<g transform="matrix(1 0 0 1 218.6751 129.5264)">
<path style="stroke: none; stroke-width: 1; stroke-dasharray: none; stroke-linecap: butt; stroke-dashoffset: 0; stroke-linejoin: miter; stroke-miterlimit: 4; is-custom-font: none; font-file-url: none; fill: rgb(230,230,230); fill-rule: nonzero; opacity: 1;" transform=" translate(-818.6751, -579.5264)" d="M 953.83625 608.40682 H 683.514 a 9.09549 9.09549 0 0 1 -9.085 -9.085 V 559.731 a 9.09549 9.09549 0 0 1 9.085 -9.085 H 953.83625 a 9.09549 9.09549 0 0 1 9.085 9.085 v 39.59082 A 9.09549 9.09549 0 0 1 953.83625 608.40682 Z" stroke-linecap="round"/>
</g>
		<g transform="matrix(1 0 0 1 218.6759 129.5288)">
<path style="stroke: none; stroke-width: 1; stroke-dasharray: none; stroke-linecap: butt; stroke-dashoffset: 0; stroke-linejoin: miter; stroke-miterlimit: 4; is-custom-font: none; font-file-url: none; fill: rgb(255,255,255); fill-rule: nonzero; opacity: 1;" transform=" translate(-818.6758, -579.5289)" d="M 927.57111 602.27889 H 689.64337 a 9.09549 9.09549 0 0 1 -9.085 -9.085 V 565.86385 a 9.0955 9.0955 0 0 1 9.085 -9.085 H 947.70832 a 9.0955 9.0955 0 0 1 9.085 9.085 v 7.19288 A 29.2551 29.2551 0 0 1 927.57111 602.27889 Z" stroke-linecap="round"/>
</g>
		<g transform="matrix(1 0 0 1 191.1754 124.3671)">
<path style="stroke: none; stroke-width: 1; stroke-dasharray: none; stroke-linecap: butt; stroke-dashoffset: 0; stroke-linejoin: miter; stroke-miterlimit: 4; is-custom-font: none; font-file-url: none; fill: rgb(79,178,252); fill-rule: nonzero; opacity: 1;" transform=" translate(-791.1754, -574.3671)" d="M 845.49982 576.71005 H 736.85089 a 2.343 2.343 0 1 1 0 -4.686 H 845.49982 a 2.343 2.343 0 0 1 0 4.686 Z" stroke-linecap="round"/>
</g>
		<g transform="matrix(1 0 0 1 218.6754 133.95)">
<path style="stroke: none; stroke-width: 1; stroke-dasharray: none; stroke-linecap: butt; stroke-dashoffset: 0; stroke-linejoin: miter; stroke-miterlimit: 4; is-custom-font: none; font-file-url: none; fill: rgb(230,230,230); fill-rule: nonzero; opacity: 1;" transform=" translate(-818.6754, -583.95)" d="M 900.49982 586.29305 H 736.85089 a 2.343 2.343 0 1 1 0 -4.686 H 900.49982 a 2.343 2.343 0 0 1 0 4.686 Z" stroke-linecap="round"/>
</g>
		<g transform="matrix(1 0 0 1 -51.1609 -153.25)" id="f8b50a69-a369-42b8-943f-f14ba4f1f80f">
<circle style="stroke: none; stroke-width: 1; stroke-dasharray: none; stroke-linecap: butt; stroke-dashoffset: 0; stroke-linejoin: miter; stroke-miterlimit: 4; is-custom-font: none; font-file-url: none; fill: rgb(255,185,185); fill-rule: nonzero; opacity: 1;" cx="0" cy="0" r="28.272"/>
</g>
		<g transform="matrix(1 0 0 1 -47.6672 -165.0105)">
<path style="stroke: none; stroke-width: 1; stroke-dasharray: none; stroke-linecap: butt; stroke-dashoffset: 0; stroke-linejoin: miter; stroke-miterlimit: 4; is-custom-font: none; font-file-url: none; fill: rgb(47,46,65); fill-rule: nonzero; opacity: 1;" transform=" translate(-552.3328, -284.9895)" d="M 528.05143 314.93262 a 3.0924 3.0924 0 0 1 -0.99736 -0.16085 a 6.53654 6.53654 0 0 1 -3.014 -2.679 c -4.86764 -7.00083 -7.218 -16.33485 -6.98492 -27.74314 c 0.09849 -4.82636 0.64469 -10.99714 4.02469 -15.916 c 2.84239 -4.13608 8.59213 -7.41845 13.95049 -5.77081 a 5.79219 5.79219 0 0 1 2.8897 -5.34718 c 2.02955 -1.24293 4.47283 -1.47173 6.628 -1.6743 c 5.44223 -0.51008 11.0681 -1.03735 16.57871 0.00688 c 6.179 1.172 11.2311 4.35671 13.861 8.7375 l 0.05376 0.13762 l 0.53459 2.596 a 2.46521 2.46521 0 0 0 3.28237 1.81063 a 2.23672 2.23672 0 0 1 3.00152 2.41447 l -0.14924 1.03262 l 1.55431 -0.29074 a 2.23775 2.23775 0 0 1 2.50952 2.97487 l -0.43911 1.18745 a 2.3539 2.3539 0 0 1 1.71128 0.7535 a 2.16367 2.16367 0 0 1 0.29332 2.54908 a 20.27084 20.27084 0 0 1 -7.1604 7.20426 a 16.923 16.923 0 0 1 -5.23278 2.05793 a 100.50121 100.50121 0 0 1 -36.46 1.09628 a 20.55532 20.55532 0 0 1 0.815 7.38016 c -0.38793 3.11249 -2.21534 5.68092 -4.65561 6.54323 a 11.24288 11.24288 0 0 1 -1.7014 0.4103 a 9.97584 9.97584 0 0 0 -1.62441 0.39481 a 4.75374 4.75374 0 0 0 -1.39174 8.12464 l 1.20337 -1.25411 l -0.39137 1.5943 a 2.2875 2.2875 0 0 1 -1.16638 1.45238 A 3.20545 3.20545 0 0 1 528.05143 314.93262 Z" stroke-linecap="round"/>
</g>
		<g transform="matrix(1 0 0 1 320.0204 305.1046)">
<path style="stroke: none; stroke-width: 1; stroke-dasharray: none; stroke-linecap: butt; stroke-dashoffset: 0; stroke-linejoin: miter; stroke-miterlimit: 4; is-custom-font: none; font-file-url: none; fill: rgb(242,242,242); fill-rule: nonzero; opacity: 1;" transform=" translate(-920.0204, -755.1046)" d="M 921.34506 741.8203 l 1.14386 -25.71947 a 83.066 83.066 0 0 1 38.74474 -9.80779 c -18.60844 15.21377 -16.28294 44.5407 -28.899 64.99962 a 49.96435 49.96435 0 0 1 -36.63939 23.08922 l -15.5722 9.53437 a 83.72448 83.72448 0 0 1 17.647 -67.84511 A 80.87282 80.87282 0 0 1 912.633 722.261 C 916.36256 732.09516 921.34506 741.8203 921.34506 741.8203 Z" stroke-linecap="round"/>
</g>
		<g transform="matrix(1 0 0 1 0 354.546)">
<path style="stroke: none; stroke-width: 1; stroke-dasharray: none; stroke-linecap: butt; stroke-dashoffset: 0; stroke-linejoin: miter; stroke-miterlimit: 4; is-custom-font: none; font-file-url: none; fill: rgb(204,204,204); fill-rule: nonzero; opacity: 1;" transform=" translate(-600, -804.546)" d="M 1032.835 804.546 a 1.18647 1.18647 0 0 1 -1.19006 1.19 H 168.355 a 1.19 1.19 0 0 1 0 -2.38 h 863.29 A 1.18651 1.18651 0 0 1 1032.835 804.546 Z" stroke-linecap="round"/>
</g>
</g>
</g>
</svg>